<svg xmlns="http://www.w3.org/2000/svg" width="628" height="68">
         <defs>
            <style type="text/css">
               @namespace "http://www.w3.org/2000/svg";
               .line                 {fill: none; stroke: #332900;}
               .bold-line            {stroke: #141000; shape-rendering: crispEdges; stroke-width:
               2; }
               .thin-line            {stroke: #1F1800; shape-rendering: crispEdges}
               .filled               {fill: #332900; stroke: none;}
               text.terminal         {font-family: Verdana, Sans-serif;
               font-size: 12px;
               fill: #141000;
               font-weight: bold;
               }
               text.nonterminal      {font-family: Verdana, Sans-serif;
               font-size: 12px;
               fill: #1A1400;
               }
               text.regexp           {font-family: Verdana, Sans-serif;
               font-size: 12px;
               fill: #1F1800;
               }
               rect, circle, polygon {fill: #332900; stroke: #332900;}
               rect.terminal         {fill: #FFDB4D; stroke: #332900;}
               rect.nonterminal      {fill: #FFEC9E; stroke: #332900;}
               rect.text             {fill: none; stroke: none;}    
               polygon.regexp        {fill: #FFF4C7; stroke: #332900;}
               
            </style>
         </defs>
         <polygon points="9 17 1 13 1 21"/>
         <polygon points="17 17 9 13 9 21"/>
         <a xmlns:xlink="http://www.w3.org/1999/xlink" xlink:href="#lexpr" xlink:title="lexpr">
            <rect x="31" y="3" width="50" height="32"/>
            <rect x="29" y="1" width="50" height="32" class="nonterminal"/>
            <text class="nonterminal" x="39" y="21">lexpr</text>
         </a>
         <rect x="101" y="3" width="30" height="32" rx="10"/>
         <rect x="99" y="1" width="30" height="32" class="terminal" rx="10"/>
         <text class="terminal" x="109" y="21">=</text>
         <a xmlns:xlink="http://www.w3.org/1999/xlink" xlink:href="#target_list" xlink:title="target_list">
            <rect x="171" y="35" width="84" height="32"/>
            <rect x="169" y="33" width="84" height="32" class="nonterminal"/>
            <text class="nonterminal" x="179" y="53">target_list</text>
         </a>
         <rect x="275" y="35" width="26" height="32" rx="10"/>
         <rect x="273" y="33" width="26" height="32" class="terminal" rx="10"/>
         <text class="terminal" x="283" y="53">|</text>
         <a xmlns:xlink="http://www.w3.org/1999/xlink" xlink:href="#protocol" xlink:title="protocol">
            <rect x="341" y="3" width="70" height="32"/>
            <rect x="339" y="1" width="70" height="32" class="nonterminal"/>
            <text class="nonterminal" x="349" y="21">protocol</text>
         </a>
         <rect x="451" y="35" width="26" height="32" rx="10"/>
         <rect x="449" y="33" width="26" height="32" class="terminal" rx="10"/>
         <text class="terminal" x="459" y="53">|</text>
         <a xmlns:xlink="http://www.w3.org/1999/xlink" xlink:href="#target_list" xlink:title="target_list">
            <rect x="497" y="35" width="84" height="32"/>
            <rect x="495" y="33" width="84" height="32" class="nonterminal"/>
            <text class="nonterminal" x="505" y="53">target_list</text>
         </a>
         <svg:path xmlns:svg="http://www.w3.org/2000/svg" class="line" d="m17 17 h2 m0 0 h10 m50 0 h10 m0 0 h10 m30 0 h10 m20 0 h10 m0 0 h140 m-170 0 h20 m150 0 h20 m-190 0 q10 0 10 10 m170 0 q0 -10 10 -10 m-180 10 v12 m170 0 v-12 m-170 12 q0 10 10 10 m150 0 q10 0 10 -10 m-160 10 h10 m84 0 h10 m0 0 h10 m26 0 h10 m20 -32 h10 m70 0 h10 m20 0 h10 m0 0 h140 m-170 0 h20 m150 0 h20 m-190 0 q10 0 10 10 m170 0 q0 -10 10 -10 m-180 10 v12 m170 0 v-12 m-170 12 q0 10 10 10 m150 0 q10 0 10 -10 m-160 10 h10 m26 0 h10 m0 0 h10 m84 0 h10 m23 -32 h-3"/>
         <polygon points="619 17 627 13 627 21"/>
         <polygon points="619 17 611 13 611 21"/>
      </svg>