<svg xmlns="http://www.w3.org/2000/svg" width="288" height="124">
         <defs>
            <style type="text/css">
               @namespace "http://www.w3.org/2000/svg";
               .line                 {fill: none; stroke: #332900;}
               .bold-line            {stroke: #141000; shape-rendering: crispEdges; stroke-width:
               2; }
               .thin-line            {stroke: #1F1800; shape-rendering: crispEdges}
               .filled               {fill: #332900; stroke: none;}
               text.terminal         {font-family: Verdana, Sans-serif;
               font-size: 12px;
               fill: #141000;
               font-weight: bold;
               }
               text.nonterminal      {font-family: Verdana, Sans-serif;
               font-size: 12px;
               fill: #1A1400;
               }
               text.regexp           {font-family: Verdana, Sans-serif;
               font-size: 12px;
               fill: #1F1800;
               }
               rect, circle, polygon {fill: #332900; stroke: #332900;}
               rect.terminal         {fill: #FFDB4D; stroke: #332900;}
               rect.nonterminal      {fill: #FFEC9E; stroke: #332900;}
               rect.text             {fill: none; stroke: none;}    
               polygon.regexp        {fill: #FFF4C7; stroke: #332900;}
               
            </style>
         </defs>
         <polygon points="9 17 1 13 1 21"/>
         <polygon points="17 17 9 13 9 21"/>
         <rect x="51" y="3" width="32" height="32" rx="10"/>
         <rect x="49" y="1" width="32" height="32" class="terminal" rx="10"/>
         <text class="terminal" x="59" y="21">[]</text>
         <rect x="51" y="91" width="26" height="32" rx="10"/>
         <rect x="49" y="89" width="26" height="32" class="terminal" rx="10"/>
         <text class="terminal" x="59" y="109">[</text>
         <a xmlns:xlink="http://www.w3.org/1999/xlink" xlink:href="#target" xlink:title="target">
            <rect x="117" y="91" width="58" height="32"/>
            <rect x="115" y="89" width="58" height="32" class="nonterminal"/>
            <text class="nonterminal" x="125" y="109">target</text>
         </a>
         <rect x="117" y="47" width="24" height="32" rx="10"/>
         <rect x="115" y="45" width="24" height="32" class="terminal" rx="10"/>
         <text class="terminal" x="125" y="65">,</text>
         <rect x="215" y="91" width="26" height="32" rx="10"/>
         <rect x="213" y="89" width="26" height="32" class="terminal" rx="10"/>
         <text class="terminal" x="223" y="109">]</text>
         <svg:path xmlns:svg="http://www.w3.org/2000/svg" class="line" d="m17 17 h2 m20 0 h10 m32 0 h10 m0 0 h158 m-230 0 h20 m210 0 h20 m-250 0 q10 0 10 10 m230 0 q0 -10 10 -10 m-240 10 v68 m230 0 v-68 m-230 68 q0 10 10 10 m210 0 q10 0 10 -10 m-220 10 h10 m26 0 h10 m20 0 h10 m58 0 h10 m-98 0 l20 0 m-1 0 q-9 0 -9 -10 l0 -24 q0 -10 10 -10 m78 44 l20 0 m-20 0 q10 0 10 -10 l0 -24 q0 -10 -10 -10 m-78 0 h10 m24 0 h10 m0 0 h34 m20 44 h10 m26 0 h10 m23 -88 h-3"/>
         <polygon points="279 17 287 13 287 21"/>
         <polygon points="279 17 271 13 271 21"/>
      </svg>