<svg xmlns="http://www.w3.org/2000/svg" width="262" height="52">
         <defs>
            <style type="text/css">
               @namespace "http://www.w3.org/2000/svg";
               .line                 {fill: none; stroke: #332900;}
               .bold-line            {stroke: #141000; shape-rendering: crispEdges; stroke-width:
               2; }
               .thin-line            {stroke: #1F1800; shape-rendering: crispEdges}
               .filled               {fill: #332900; stroke: none;}
               text.terminal         {font-family: Verdana, Sans-serif;
               font-size: 12px;
               fill: #141000;
               font-weight: bold;
               }
               text.nonterminal      {font-family: Verdana, Sans-serif;
               font-size: 12px;
               fill: #1A1400;
               }
               text.regexp           {font-family: Verdana, Sans-serif;
               font-size: 12px;
               fill: #1F1800;
               }
               rect, circle, polygon {fill: #332900; stroke: #332900;}
               rect.terminal         {fill: #FFDB4D; stroke: #332900;}
               rect.nonterminal      {fill: #FFEC9E; stroke: #332900;}
               rect.text             {fill: none; stroke: none;}    
               polygon.regexp        {fill: #FFF4C7; stroke: #332900;}
               
            </style>
         </defs>
         <polygon points="9 33 1 29 1 37"/>
         <polygon points="17 33 9 29 9 37"/>
         <a xmlns:xlink="http://www.w3.org/1999/xlink" xlink:href="#ext" xlink:title="ext">
            <rect x="31" y="19" width="40" height="32"/>
            <rect x="29" y="17" width="40" height="32" class="nonterminal"/>
            <text class="nonterminal" x="39" y="37">ext</text>
         </a>
         <rect x="111" y="19" width="24" height="32" rx="10"/>
         <rect x="109" y="17" width="24" height="32" class="terminal" rx="10"/>
         <text class="terminal" x="119" y="37">.</text>
         <a xmlns:xlink="http://www.w3.org/1999/xlink" xlink:href="#rtoken" xlink:title="rtoken">
            <rect x="155" y="19" width="60" height="32"/>
            <rect x="153" y="17" width="60" height="32" class="nonterminal"/>
            <text class="nonterminal" x="163" y="37">rtoken</text>
         </a>
         <svg:path xmlns:svg="http://www.w3.org/2000/svg" class="line" d="m17 33 h2 m0 0 h10 m40 0 h10 m20 0 h10 m24 0 h10 m0 0 h10 m60 0 h10 m-144 0 l20 0 m-1 0 q-9 0 -9 -10 l0 -12 q0 -10 10 -10 m124 32 l20 0 m-20 0 q10 0 10 -10 l0 -12 q0 -10 -10 -10 m-124 0 h10 m0 0 h114 m23 32 h-3"/>
         <polygon points="253 33 261 29 261 37"/>
         <polygon points="253 33 245 29 245 37"/>
      </svg>