<svg xmlns="http://www.w3.org/2000/svg" width="338" height="68">
         <defs>
            <style type="text/css">
               @namespace "http://www.w3.org/2000/svg";
               .line                 {fill: none; stroke: #332900;}
               .bold-line            {stroke: #141000; shape-rendering: crispEdges; stroke-width:
               2; }
               .thin-line            {stroke: #1F1800; shape-rendering: crispEdges}
               .filled               {fill: #332900; stroke: none;}
               text.terminal         {font-family: Verdana, Sans-serif;
               font-size: 12px;
               fill: #141000;
               font-weight: bold;
               }
               text.nonterminal      {font-family: Verdana, Sans-serif;
               font-size: 12px;
               fill: #1A1400;
               }
               text.regexp           {font-family: Verdana, Sans-serif;
               font-size: 12px;
               fill: #1F1800;
               }
               rect, circle, polygon {fill: #332900; stroke: #332900;}
               rect.terminal         {fill: #FFDB4D; stroke: #332900;}
               rect.nonterminal      {fill: #FFEC9E; stroke: #332900;}
               rect.text             {fill: none; stroke: none;}    
               polygon.regexp        {fill: #FFF4C7; stroke: #332900;}
               
            </style>
         </defs>
         <polygon points="9 17 1 13 1 21"/>
         <polygon points="17 17 9 13 9 21"/>
         <a xmlns:xlink="http://www.w3.org/1999/xlink" xlink:href="#word" xlink:title="word">
            <rect x="31" y="3" width="52" height="32"/>
            <rect x="29" y="1" width="52" height="32" class="nonterminal"/>
            <text class="nonterminal" x="39" y="21">word</text>
         </a>
         <rect x="123" y="35" width="26" height="32" rx="10"/>
         <rect x="121" y="33" width="26" height="32" class="terminal" rx="10"/>
         <text class="terminal" x="131" y="53">(</text>
         <a xmlns:xlink="http://www.w3.org/1999/xlink" xlink:href="#template" xlink:title="template">
            <rect x="169" y="35" width="76" height="32"/>
            <rect x="167" y="33" width="76" height="32" class="nonterminal"/>
            <text class="nonterminal" x="177" y="53">template</text>
         </a>
         <rect x="265" y="35" width="26" height="32" rx="10"/>
         <rect x="263" y="33" width="26" height="32" class="terminal" rx="10"/>
         <text class="terminal" x="273" y="53">)</text>
         <svg:path xmlns:svg="http://www.w3.org/2000/svg" class="line" d="m17 17 h2 m0 0 h10 m52 0 h10 m20 0 h10 m0 0 h178 m-208 0 h20 m188 0 h20 m-228 0 q10 0 10 10 m208 0 q0 -10 10 -10 m-218 10 v12 m208 0 v-12 m-208 12 q0 10 10 10 m188 0 q10 0 10 -10 m-198 10 h10 m26 0 h10 m0 0 h10 m76 0 h10 m0 0 h10 m26 0 h10 m23 -32 h-3"/>
         <polygon points="329 17 337 13 337 21"/>
         <polygon points="329 17 321 13 321 21"/>
      </svg>