<svg xmlns="http://www.w3.org/2000/svg" width="372" height="200">
         <defs>
            <style type="text/css">
               @namespace "http://www.w3.org/2000/svg";
               .line                 {fill: none; stroke: #332900;}
               .bold-line            {stroke: #141000; shape-rendering: crispEdges; stroke-width:
               2; }
               .thin-line            {stroke: #1F1800; shape-rendering: crispEdges}
               .filled               {fill: #332900; stroke: none;}
               text.terminal         {font-family: Verdana, Sans-serif;
               font-size: 12px;
               fill: #141000;
               font-weight: bold;
               }
               text.nonterminal      {font-family: Verdana, Sans-serif;
               font-size: 12px;
               fill: #1A1400;
               }
               text.regexp           {font-family: Verdana, Sans-serif;
               font-size: 12px;
               fill: #1F1800;
               }
               rect, circle, polygon {fill: #332900; stroke: #332900;}
               rect.terminal         {fill: #FFDB4D; stroke: #332900;}
               rect.nonterminal      {fill: #FFEC9E; stroke: #332900;}
               rect.text             {fill: none; stroke: none;}    
               polygon.regexp        {fill: #FFF4C7; stroke: #332900;}
               
            </style>
         </defs>
         <polygon points="9 17 1 13 1 21"/>
         <polygon points="17 17 9 13 9 21"/>
         <rect x="71" y="3" width="50" height="32" rx="10"/>
         <rect x="69" y="1" width="50" height="32" class="terminal" rx="10"/>
         <text class="terminal" x="79" y="21">shell</text>
         <rect x="71" y="47" width="26" height="32" rx="10"/>
         <rect x="69" y="45" width="26" height="32" class="terminal" rx="10"/>
         <text class="terminal" x="79" y="65">r</text>
         <rect x="71" y="91" width="46" height="32" rx="10"/>
         <rect x="69" y="89" width="46" height="32" class="terminal" rx="10"/>
         <text class="terminal" x="79" y="109">psql</text>
         <rect x="181" y="3" width="28" height="32" rx="10"/>
         <rect x="179" y="1" width="28" height="32" class="terminal" rx="10"/>
         <text class="terminal" x="189" y="21">*</text>
         <a xmlns:xlink="http://www.w3.org/1999/xlink" xlink:href="#template" xlink:title="template">
            <rect x="229" y="3" width="76" height="32"/>
            <rect x="227" y="1" width="76" height="32" class="nonterminal"/>
            <text class="nonterminal" x="237" y="21">template</text>
         </a>
         <a xmlns:xlink="http://www.w3.org/1999/xlink" xlink:href="#BLOCK" xlink:title="BLOCK">
            <rect x="181" y="47" width="62" height="32"/>
            <rect x="179" y="45" width="62" height="32" class="nonterminal"/>
            <text class="nonterminal" x="189" y="65">BLOCK</text>
         </a>
         <rect x="51" y="135" width="52" height="32" rx="10"/>
         <rect x="49" y="133" width="52" height="32" class="terminal" rx="10"/>
         <text class="terminal" x="59" y="153">psqlf</text>
         <rect x="143" y="167" width="26" height="32" rx="10"/>
         <rect x="141" y="165" width="26" height="32" class="terminal" rx="10"/>
         <text class="terminal" x="151" y="185">(</text>
         <a xmlns:xlink="http://www.w3.org/1999/xlink" xlink:href="#HASH" xlink:title="HASH">
            <rect x="189" y="167" width="54" height="32"/>
            <rect x="187" y="165" width="54" height="32" class="nonterminal"/>
            <text class="nonterminal" x="197" y="185">HASH</text>
         </a>
         <rect x="263" y="167" width="26" height="32" rx="10"/>
         <rect x="261" y="165" width="26" height="32" class="terminal" rx="10"/>
         <text class="terminal" x="271" y="185">)</text>
         <svg:path xmlns:svg="http://www.w3.org/2000/svg" class="line" d="m17 17 h2 m40 0 h10 m50 0 h10 m-90 0 h20 m70 0 h20 m-110 0 q10 0 10 10 m90 0 q0 -10 10 -10 m-100 10 v24 m90 0 v-24 m-90 24 q0 10 10 10 m70 0 q10 0 10 -10 m-80 10 h10 m26 0 h10 m0 0 h24 m-80 -10 v20 m90 0 v-20 m-90 20 v24 m90 0 v-24 m-90 24 q0 10 10 10 m70 0 q10 0 10 -10 m-80 10 h10 m46 0 h10 m0 0 h4 m40 -88 h10 m28 0 h10 m0 0 h10 m76 0 h10 m-164 0 h20 m144 0 h20 m-184 0 q10 0 10 10 m164 0 q0 -10 10 -10 m-174 10 v24 m164 0 v-24 m-164 24 q0 10 10 10 m144 0 q10 0 10 -10 m-154 10 h10 m62 0 h10 m0 0 h62 m-294 -44 h20 m294 0 h20 m-334 0 q10 0 10 10 m314 0 q0 -10 10 -10 m-324 10 v112 m314 0 v-112 m-314 112 q0 10 10 10 m294 0 q10 0 10 -10 m-304 10 h10 m52 0 h10 m20 0 h10 m0 0 h156 m-186 0 h20 m166 0 h20 m-206 0 q10 0 10 10 m186 0 q0 -10 10 -10 m-196 10 v12 m186 0 v-12 m-186 12 q0 10 10 10 m166 0 q10 0 10 -10 m-176 10 h10 m26 0 h10 m0 0 h10 m54 0 h10 m0 0 h10 m26 0 h10 m20 -32 h16 m23 -132 h-3"/>
         <polygon points="363 17 371 13 371 21"/>
         <polygon points="363 17 355 13 355 21"/>
      </svg>