<?xml version="1.0" standalone="no"?>
<!DOCTYPE svg PUBLIC "-//W3C//DTD SVG 1.1//EN"
  "http://www.w3.org/Graphics/SVG/1.1/DTD/svg11.dtd">
<svg xmlns="http://www.w3.org/2000/svg" version="1.1" class="railroad-diagram" width="413" height="182" viewBox="0 0 413 182">
<defs><style type="text/css"><![CDATA[ svg.railroad-diagram {
  background-color: hsl(30,20%,95%);
}
svg.railroad-diagram path {
  stroke-width: 3;
  stroke: black;
  fill: none;
}
svg.railroad-diagram text {
  font: bold 14px monospace;
  text-anchor: middle;
  cursor: pointer;
}
svg.railroad-diagram text.label {
  text-anchor: start;
}
svg.railroad-diagram text.comment {
  font: italic 12px monospace;
}
svg.railroad-diagram rect {
  stroke-width: 3;
  stroke: black;
  fill: hsl(120,100%,90%);
}
 ]]></style></defs>
<g transform="translate(.5 .5)">
<path d="M 20 21 v 20 m 10 -20 v 20 m -10 -10 h 20.5"></path>
<g>
<path d="M40 31h0"></path>
<path d="M372 31h0"></path>
<path d="M40 31h20"></path>
<g>
<path d="M60 31h0"></path>
<path d="M352 31h0"></path>
<g>
<path d="M60 31h0"></path>
<path d="M160 31h0"></path>
<path d="M60 31h20"></path>
<g>
<path d="M80 31h0"></path>
<path d="M140 31h0"></path>
<rect x="80" y="20" width="60" height="22" rx="10" ry="10"></rect>
<text x="110" y="35">shell</text>
</g>
<path d="M140 31h20"></path>
<path d="M60 31a10 10 0 0 1 10 10v10a10 10 0 0 0 10 10"></path>
<g>
<path d="M80 61h16"></path>
<path d="M124 61h16"></path>
<rect x="96" y="50" width="28" height="22" rx="10" ry="10"></rect>
<text x="110" y="65">r</text>
</g>
<path d="M140 61a10 10 0 0 0 10 -10v-10a10 10 0 0 1 10 -10"></path>
<path d="M60 31a10 10 0 0 1 10 10v40a10 10 0 0 0 10 10"></path>
<g>
<path d="M80 91h4"></path>
<path d="M136 91h4"></path>
<rect x="84" y="80" width="52" height="22" rx="10" ry="10"></rect>
<text x="110" y="95">psql</text>
</g>
<path d="M140 91a10 10 0 0 0 10 -10v-40a10 10 0 0 1 10 -10"></path>
<path d="M60 31a10 10 0 0 1 10 10v70a10 10 0 0 0 10 10"></path>
<g>
<path d="M80 121h12"></path>
<path d="M128 121h12"></path>
<rect x="92" y="110" width="36" height="22" rx="10" ry="10"></rect>
<text x="110" y="125">py</text>
</g>
<path d="M140 121a10 10 0 0 0 10 -10v-70a10 10 0 0 1 10 -10"></path>
</g>
<g>
<path d="M160 31h0"></path>
<path d="M352 31h0"></path>
<path d="M160 31h20"></path>
<g>
<path d="M180 31h0"></path>
<path d="M332 31h0"></path>
<path d="M180 31h10"></path>
<g>
<path d="M190 31h0"></path>
<path d="M218 31h0"></path>
<rect x="190" y="20" width="28" height="22" rx="10" ry="10"></rect>
<text x="204" y="35">&#42;</text>
</g>
<path d="M218 31h10"></path>
<path d="M228 31h10"></path>
<g>
<path d="M238 31h0"></path>
<path d="M322 31h0"></path>
<rect x="238" y="20" width="84" height="22"></rect>
<text x="280" y="35">template</text>
</g>
<path d="M322 31h10"></path>
</g>
<path d="M332 31h20"></path>
<path d="M160 31a10 10 0 0 1 10 10v10a10 10 0 0 0 10 10"></path>
<g>
<path d="M180 61h46"></path>
<path d="M286 61h46"></path>
<rect x="226" y="50" width="60" height="22"></rect>
<text x="256" y="65">BLOCK</text>
</g>
<path d="M332 61a10 10 0 0 0 10 -10v-10a10 10 0 0 1 10 -10"></path>
</g>
</g>
<path d="M352 31h20"></path>
<path d="M40 31a10 10 0 0 1 10 10v100a10 10 0 0 0 10 10"></path>
<g>
<path d="M60 151h74"></path>
<path d="M278 151h74"></path>
<path d="M134 151h10"></path>
<g>
<path d="M144 151h0"></path>
<path d="M188 151h0"></path>
<rect x="144" y="140" width="44" height="22" rx="10" ry="10"></rect>
<text x="166" y="155">run</text>
</g>
<path d="M188 151h10"></path>
<path d="M198 151h10"></path>
<g>
<path d="M208 151h0"></path>
<path d="M268 151h0"></path>
<rect x="208" y="140" width="60" height="22"></rect>
<text x="238" y="155">BLOCK</text>
</g>
<path d="M268 151h10"></path>
</g>
<path d="M352 151a10 10 0 0 0 10 -10v-100a10 10 0 0 1 10 -10"></path>
</g>
<path d="M 372 31 h 20 m -10 -10 v 20 m 10 -20 v 20"></path>
</g>
</svg>
