<?xml version="1.0" standalone="no"?>
<!DOCTYPE svg PUBLIC "-//W3C//DTD SVG 1.1//EN"
  "http://www.w3.org/Graphics/SVG/1.1/DTD/svg11.dtd">
<svg xmlns="http://www.w3.org/2000/svg" version="1.1" class="railroad-diagram" width="393" height="92" viewBox="0 0 393 92">
<defs><style type="text/css"><![CDATA[ svg.railroad-diagram {
  background-color: hsl(30,20%,95%);
}
svg.railroad-diagram path {
  stroke-width: 3;
  stroke: black;
  fill: none;
}
svg.railroad-diagram text {
  font: bold 14px monospace;
  text-anchor: middle;
  cursor: pointer;
}
svg.railroad-diagram text.label {
  text-anchor: start;
}
svg.railroad-diagram text.comment {
  font: italic 12px monospace;
}
svg.railroad-diagram rect {
  stroke-width: 3;
  stroke: black;
  fill: hsl(120,100%,90%);
}
 ]]></style></defs>
<g transform="translate(.5 .5)">
<path d="M 20 21 v 20 m 10 -20 v 20 m -10 -10 h 20.5"></path>
<g>
<path d="M40 31h0"></path>
<path d="M352 31h0"></path>
<path d="M40 31h20"></path>
<g>
<path d="M60 31h110"></path>
<path d="M222 31h110"></path>
<rect x="170" y="20" width="52" height="22"></rect>
<text x="196" y="35">word</text>
</g>
<path d="M332 31h20"></path>
<path d="M40 31a10 10 0 0 1 10 10v10a10 10 0 0 0 10 10"></path>
<g>
<path d="M60 61h0"></path>
<path d="M332 61h0"></path>
<path d="M60 61h10"></path>
<g>
<path d="M70 61h0"></path>
<path d="M122 61h0"></path>
<rect x="70" y="50" width="52" height="22"></rect>
<text x="96" y="65">word</text>
</g>
<path d="M122 61h10"></path>
<path d="M132 61h10"></path>
<g>
<path d="M142 61h0"></path>
<path d="M170 61h0"></path>
<rect x="142" y="50" width="28" height="22" rx="10" ry="10"></rect>
<text x="156" y="65">(</text>
</g>
<path d="M170 61h10"></path>
<path d="M180 61h10"></path>
<g>
<path d="M190 61h0"></path>
<path d="M274 61h0"></path>
<rect x="190" y="50" width="84" height="22"></rect>
<text x="232" y="65">template</text>
</g>
<path d="M274 61h10"></path>
<path d="M284 61h10"></path>
<g>
<path d="M294 61h0"></path>
<path d="M322 61h0"></path>
<rect x="294" y="50" width="28" height="22" rx="10" ry="10"></rect>
<text x="308" y="65">)</text>
</g>
<path d="M322 61h10"></path>
</g>
<path d="M332 61a10 10 0 0 0 10 -10v-10a10 10 0 0 1 10 -10"></path>
</g>
<path d="M 352 31 h 20 m -10 -10 v 20 m 10 -20 v 20"></path>
</g>
</svg>
