<?xml version="1.0" standalone="no"?>
<!DOCTYPE svg PUBLIC "-//W3C//DTD SVG 1.1//EN"
  "http://www.w3.org/Graphics/SVG/1.1/DTD/svg11.dtd">
<svg xmlns="http://www.w3.org/2000/svg" version="1.1" class="railroad-diagram" width="321" height="71" viewBox="0 0 321 71">
<defs><style type="text/css"><![CDATA[ svg.railroad-diagram {
  background-color: hsl(30,20%,95%);
}
svg.railroad-diagram path {
  stroke-width: 3;
  stroke: black;
  fill: none;
}
svg.railroad-diagram text {
  font: bold 14px monospace;
  text-anchor: middle;
  cursor: pointer;
}
svg.railroad-diagram text.label {
  text-anchor: start;
}
svg.railroad-diagram text.comment {
  font: italic 12px monospace;
}
svg.railroad-diagram rect {
  stroke-width: 3;
  stroke: black;
  fill: hsl(120,100%,90%);
}
 ]]></style></defs>
<g transform="translate(.5 .5)">
<path d="M 20 21 v 20 m 10 -20 v 20 m -10 -10 h 20.5"></path>
<g>
<path d="M40 31h0"></path>
<path d="M280 31h0"></path>
<path d="M40 31h10"></path>
<g>
<path d="M50 31h0"></path>
<path d="M94 31h0"></path>
<rect x="50" y="20" width="44" height="22"></rect>
<text x="72" y="35">ext</text>
</g>
<path d="M94 31h10"></path>
<path d="M104 31h10"></path>
<g>
<path d="M114 31h0"></path>
<path d="M270 31h0"></path>
<path d="M114 31h10"></path>
<g>
<path d="M124 31h0"></path>
<path d="M260 31h0"></path>
<path d="M124 31h10"></path>
<g>
<path d="M134 31h0"></path>
<path d="M162 31h0"></path>
<rect x="134" y="20" width="28" height="22" rx="10" ry="10"></rect>
<text x="148" y="35">.</text>
</g>
<path d="M162 31h10"></path>
<path d="M172 31h10"></path>
<g>
<path d="M182 31h0"></path>
<path d="M250 31h0"></path>
<rect x="182" y="20" width="68" height="22"></rect>
<text x="216" y="35">ltoken</text>
</g>
<path d="M250 31h10"></path>
</g>
<path d="M260 31h10"></path>
<path d="M124 31a10 10 0 0 0 -10 10v0a10 10 0 0 0 10 10"></path>
<g>
<path d="M124 51h68"></path>
<path d="M192 51h68"></path>
</g>
<path d="M260 51a10 10 0 0 0 10 -10v0a10 10 0 0 0 -10 -10"></path>
</g>
<path d="M270 31h10"></path>
</g>
<path d="M 280 31 h 20 m -10 -10 v 20 m 10 -20 v 20"></path>
</g>
</svg>
